<?xml version="1.0" encoding="UTF-8"?>
<svg width="24px" height="24px" viewBox="0 0 24 24" version="1.1" xmlns="http://www.w3.org/2000/svg" xmlns:xlink="http://www.w3.org/1999/xlink">
    <!-- Generator: Sketch 60.1 (88133) - https://sketch.com -->
    <title>Live Accounts  - black</title>
    <desc>Created with Sketch.</desc>
    <g id="Live-Accounts----black" stroke="none" stroke-width="1" fill="none" fill-rule="evenodd" stroke-linecap="round" stroke-linejoin="round">
        <g id="chart-bar" transform="translate(2.000000, 2.000000)" stroke="#777777" stroke-width="2">
            <path d="M6.66666667,17.7777778 L6.66666667,11.1111111 C6.66666667,9.88377778 5.67174444,8.88888889 4.44444444,8.88888889 L2.22222222,8.88888889 C0.994922222,8.88888889 0,9.88377778 0,11.1111111 L0,17.7777778 C0,19.0051111 0.994922222,20 2.22222222,20 L4.44444444,20 C5.67174444,20 6.66666667,19.0051111 6.66666667,17.7777778 Z M6.66666667,17.7777778 L6.66666667,6.66666667 C6.66666667,5.43936667 7.66158889,4.44444444 8.88888889,4.44444444 L11.1111111,4.44444444 C12.3384444,4.44444444 13.3333333,5.43936667 13.3333333,6.66666667 L13.3333333,17.7777778 M6.66666667,17.7777778 C6.66666667,19.0051111 7.66158889,20 8.88888889,20 L11.1111111,20 C12.3384444,20 13.3333333,19.0051111 13.3333333,17.7777778 M13.3333333,17.7777778 L13.3333333,2.22222222 C13.3333333,0.994922222 14.3282222,0 15.5555556,0 L17.7777778,0 C19.0051111,0 20,0.994922222 20,2.22222222 L20,17.7777778 C20,19.0051111 19.0051111,20 17.7777778,20 L15.5555556,20 C14.3282222,20 13.3333333,19.0051111 13.3333333,17.7777778 Z" id="Shape"></path>
        </g>
    </g>
</svg>