<?xml version="1.0" encoding="UTF-8"?>
<svg width="24px" height="24px" viewBox="0 0 24 24" version="1.1" xmlns="http://www.w3.org/2000/svg" xmlns:xlink="http://www.w3.org/1999/xlink">
    <!-- Generator: Sketch 60.1 (88133) - https://sketch.com -->
    <title>Payments</title>
    <desc>Created with Sketch.</desc>
    <g id="Payments" stroke="none" stroke-width="1" fill="none" fill-rule="evenodd" stroke-linecap="round" stroke-linejoin="round">
        <g id="cash" transform="translate(2.000000, 4.000000)" stroke="#F2F1F1" stroke-width="2">
            <path d="M15.5555556,4.44444444 L15.5555556,2.22222222 C15.5555556,0.994922222 14.5606667,0 13.3333333,0 L2.22222222,0 C0.994922222,0 0,0.994922222 0,2.22222222 L0,8.88888889 C0,10.1162222 0.994922222,11.1111111 2.22222222,11.1111111 L4.44444444,11.1111111 M6.66666667,15.5555556 L17.7777778,15.5555556 C19.0051111,15.5555556 20,14.5606667 20,13.3333333 L20,6.66666667 C20,5.43936667 19.0051111,4.44444444 17.7777778,4.44444444 L6.66666667,4.44444444 C5.43936667,4.44444444 4.44444444,5.43936667 4.44444444,6.66666667 L4.44444444,13.3333333 C4.44444444,14.5606667 5.43936667,15.5555556 6.66666667,15.5555556 Z M14.4444444,10 C14.4444444,11.2273333 13.4495556,12.2222222 12.2222222,12.2222222 C10.9948889,12.2222222 10,11.2273333 10,10 C10,8.77266667 10.9948889,7.77777778 12.2222222,7.77777778 C13.4495556,7.77777778 14.4444444,8.77266667 14.4444444,10 Z" id="Shape"></path>
        </g>
    </g>
</svg>