<?xml version="1.0" encoding="UTF-8"?>
<svg width="24px" height="24px" viewBox="0 0 24 24" version="1.1" xmlns="http://www.w3.org/2000/svg" xmlns:xlink="http://www.w3.org/1999/xlink">
    <!-- Generator: Sketch 60.1 (88133) - https://sketch.com -->
    <title>Contacts  - black</title>
    <desc>Created with Sketch.</desc>
    <g id="Contacts----black" stroke="none" stroke-width="1" fill="none" fill-rule="evenodd" stroke-linecap="round" stroke-linejoin="round">
        <g id="phone" transform="translate(2.000000, 2.000000)" stroke="#777777" stroke-width="2">
            <path d="M0,2.22222222 C0,0.994922222 0.994922222,0 2.22222222,0 L5.86582222,0 C6.34407778,0 6.76867778,0.306033333 6.91991111,0.759744444 L8.58411111,5.75245556 C8.759,6.27702222 8.52155556,6.85034444 8.027,7.09763333 L5.5189,8.35166667 C6.74361111,11.068 8.932,13.2564444 11.6483333,14.4811111 L12.9023333,11.973 C13.1496667,11.4784444 13.723,11.241 14.2475556,11.4158889 L19.2402222,13.0801111 C19.694,13.2313333 20,13.6558889 20,14.1342222 L20,17.7777778 C20,19.0051111 19.0051111,20 17.7777778,20 L16.6666667,20 C7.46192222,20 0,12.5381111 0,3.33333333 L0,2.22222222 Z" id="Path"></path>
        </g>
    </g>
</svg>