<?xml version="1.0" encoding="UTF-8"?>
<svg width="24px" height="24px" viewBox="0 0 24 24" version="1.1" xmlns="http://www.w3.org/2000/svg" xmlns:xlink="http://www.w3.org/1999/xlink">
    <!-- Generator: Sketch 60.1 (88133) - https://sketch.com -->
    <title>Tickets  - black</title>
    <desc>Created with Sketch.</desc>
    <g id="Tickets----black" stroke="none" stroke-width="1" fill="none" fill-rule="evenodd" stroke-linecap="round" stroke-linejoin="round">
        <g id="ticket" transform="translate(2.000000, 4.000000)" stroke="#777777" stroke-width="2">
            <path d="M13.3333333,0 L13.3333333,2.22222222 M13.3333333,6.66666667 L13.3333333,8.88888889 M13.3333333,13.3333333 L13.3333333,15.5555556 M2.22222222,0 C0.994922222,0 0,0.994922222 0,2.22222222 L0,5.55555556 C1.2273,5.55555556 2.22222222,6.55044444 2.22222222,7.77777778 C2.22222222,9.00511111 1.2273,10 0,10 L0,13.3333333 C0,14.5606667 0.994922222,15.5555556 2.22222222,15.5555556 L17.7777778,15.5555556 C19.0051111,15.5555556 20,14.5606667 20,13.3333333 L20,10 C18.7726667,10 17.7777778,9.00511111 17.7777778,7.77777778 C17.7777778,6.55044444 18.7726667,5.55555556 20,5.55555556 L20,2.22222222 C20,0.994922222 19.0051111,0 17.7777778,0 L2.22222222,0 Z" id="Shape"></path>
        </g>
    </g>
</svg>