<?xml version="1.0" encoding="UTF-8"?>
<svg width="24px" height="24px" viewBox="0 0 24 24" version="1.1" xmlns="http://www.w3.org/2000/svg" xmlns:xlink="http://www.w3.org/1999/xlink">
    <!-- Generator: Sketch 60.1 (88133) - https://sketch.com -->
    <title>Services Provider  - black</title>
    <desc>Created with Sketch.</desc>
    <g id="Services-Provider----black" stroke="none" stroke-width="1" fill="none" fill-rule="evenodd" stroke-linecap="round" stroke-linejoin="round">
        <g id="view-grid-add" transform="translate(2.000000, 2.000000)" stroke="#777777" stroke-width="2">
            <path d="M16.25,12.5 L16.25,20 M12.5,16.25 L20,16.25 M2.5,7.5 L5,7.5 C6.3807125,7.5 7.5,6.3807125 7.5,5 L7.5,2.5 C7.5,1.1192875 6.3807125,0 5,0 L2.5,0 C1.1192875,0 0,1.1192875 0,2.5 L0,5 C0,6.3807125 1.1192875,7.5 2.5,7.5 Z M15,7.5 L17.5,7.5 C18.88075,7.5 20,6.3807125 20,5 L20,2.5 C20,1.1192875 18.88075,0 17.5,0 L15,0 C13.61925,0 12.5,1.1192875 12.5,2.5 L12.5,5 C12.5,6.3807125 13.61925,7.5 15,7.5 Z M2.5,20 L5,20 C6.3807125,20 7.5,18.88075 7.5,17.5 L7.5,15 C7.5,13.61925 6.3807125,12.5 5,12.5 L2.5,12.5 C1.1192875,12.5 0,13.61925 0,15 L0,17.5 C0,18.88075 1.1192875,20 2.5,20 Z" id="Shape"></path>
        </g>
    </g>
</svg>