<?xml version="1.0" encoding="UTF-8"?>
<svg width="24px" height="24px" viewBox="0 0 24 24" version="1.1" xmlns="http://www.w3.org/2000/svg" xmlns:xlink="http://www.w3.org/1999/xlink">
    <!-- Generator: Sketch 60.1 (88133) - https://sketch.com -->
    <title>IB Commision Profile</title>
    <desc>Created with Sketch.</desc>
    <g id="IB-Commision-Profile" stroke="none" stroke-width="1" fill="none" fill-rule="evenodd" stroke-linecap="round" stroke-linejoin="round">
        <g id="currency-dollar" transform="translate(2.000000, 2.000000)" stroke="#F2F1F1" stroke-width="2">
            <path d="M10,5.55555556 C8.159,5.55555556 6.66666667,6.55047778 6.66666667,7.77777778 C6.66666667,9.00511111 8.159,10 10,10 C11.841,10 13.3333333,10.9948889 13.3333333,12.2222222 C13.3333333,13.4495556 11.841,14.4444444 10,14.4444444 M10,5.55555556 C11.2337778,5.55555556 12.311,6.00244444 12.8874444,6.66666667 M10,5.55555556 L10,4.44444444 M10,5.55555556 L10,14.4444444 M10,14.4444444 L10,15.5555556 M10,14.4444444 C8.76622222,14.4444444 7.68897778,13.9975556 7.11263333,13.3333333 M20,10 C20,15.5228889 15.5228889,20 10,20 C4.47715556,20 0,15.5228889 0,10 C0,4.47715556 4.47715556,0 10,0 C15.5228889,0 20,4.47715556 20,10 Z" id="Shape"></path>
        </g>
    </g>
</svg>